<?xml version="1.0" standalone="no"?><!-- Generator: Gravit.io --><svg xmlns="http://www.w3.org/2000/svg" xmlns:xlink="http://www.w3.org/1999/xlink" style="isolation:isolate" viewBox="0 0 150 150" width="150" height="150"><defs><clipPath id="_clipPath_dbyXYPvzC4SqaCcLJOV5URSIrl1Pw34G"><rect width="150" height="150"/></clipPath></defs><g clip-path="url(#_clipPath_dbyXYPvzC4SqaCcLJOV5URSIrl1Pw34G)"><path d=" M 103.873 57.672 L 82.685 78.86 L 74.23 70.404 L 104.709 39.826 L 131.452 66.57 L 131.452 66.57 Q 130.027 79.204 125.381 89.503 L 125.381 89.503 L 125.381 89.503 Q 120.735 99.802 112.87 107.668 L 112.87 107.668 L 112.87 107.668 Q 102.251 118.287 89.027 122.416 L 89.027 122.416 L 89.027 122.416 Q 75.803 126.546 62.775 122.367 L 62.775 122.367 L 62.775 122.367 Q 49.748 118.188 39.129 107.57 L 39.129 107.57 L 39.129 107.57 Q 28.608 97.049 23.889 83.53 L 23.889 83.53 L 23.889 83.53 Q 19.17 70.011 23.004 57.327 L 23.004 57.327 L 23.004 57.327 Q 26.839 44.644 37.605 33.878 L 37.605 33.878 L 37.605 33.878 Q 45.421 26.061 54.27 22.276 L 54.27 22.276 L 54.27 22.276 Q 63.119 18.491 71.231 19.425 L 71.231 19.425 L 71.231 19.425 Q 79.342 20.359 88.486 25.766 L 88.486 25.766 L 82.243 36.729 L 82.243 36.729 Q 75.114 32.845 69.559 32.108 L 69.559 32.108 L 69.559 32.108 Q 64.004 31.371 57.638 33.952 L 57.638 33.952 L 57.638 33.952 Q 51.271 36.532 45.815 41.989 L 45.815 41.989 L 45.815 41.989 Q 39.276 48.528 36.499 55.287 L 36.499 55.287 L 36.499 55.287 Q 33.721 62.047 34.041 68.216 L 34.041 68.216 L 34.041 68.216 Q 34.36 74.386 36.622 79.892 L 36.622 79.892 L 36.622 79.892 Q 40.554 89.331 48.371 97.148 L 48.371 97.148 L 48.371 97.148 Q 58.006 106.783 67.814 109.954 L 67.814 109.954 L 67.814 109.954 Q 77.622 113.125 87.11 109.929 L 87.11 109.929 L 87.11 109.929 Q 96.598 106.734 103.726 99.606 L 103.726 99.606 L 103.726 99.606 Q 109.92 93.411 113.435 85.128 L 113.435 85.128 L 113.435 85.128 Q 116.95 76.844 117.294 71.092 L 117.294 71.092 L 103.873 57.672 L 103.873 57.672 Z " fill="rgb(255,255,255)"/><g><path d=" M 22.6 138.85 L 18 143.44 L 8.81 134.25 L 13.4 129.65 L 132.65 10.4 L 137.25 5.81 L 146.44 15 L 141.85 19.6 L 22.6 138.85 Z " fill="rgb(255,255,255)"/></g></g></svg>